<svg width="493" height="509" viewBox="0 0 493 509" fill="none" xmlns="http://www.w3.org/2000/svg">
<path d="M232.163 41.9447C237.931 35.4558 248.069 35.4558 253.837 41.9447L290.325 82.9929C294.051 87.1848 299.751 89.0368 305.229 87.8356L358.875 76.0736C367.356 74.2142 375.558 80.1738 376.411 88.8138L381.802 143.469C382.352 149.05 385.875 153.899 391.013 156.148L441.328 178.164C449.281 181.645 452.414 191.287 448.026 198.778L420.262 246.164C417.426 251.003 417.426 256.997 420.262 261.836L448.026 309.222C452.414 316.712 449.281 326.355 441.328 329.836L391.013 351.852C385.875 354.101 382.352 358.949 381.802 364.531L376.411 419.186C375.558 427.826 367.356 433.786 358.875 431.926L305.229 420.164C299.751 418.963 294.051 420.815 290.325 425.007L253.837 466.055C248.069 472.544 237.931 472.544 232.163 466.055L195.675 425.007C191.949 420.815 186.249 418.963 180.771 420.164L127.125 431.926C118.644 433.786 110.442 427.826 109.589 419.186L104.198 364.531C103.648 358.949 100.125 354.101 94.9867 351.852L44.6724 329.836C36.7186 326.355 33.5855 316.712 37.9745 309.222L65.7385 261.836C68.5737 256.997 68.5737 251.003 65.7385 246.164L37.9745 198.778C33.5855 191.287 36.7186 181.645 44.6724 178.164L94.9867 156.148C100.125 153.899 103.648 149.05 104.198 143.469L109.589 88.8138C110.442 80.1738 118.644 74.2142 127.125 76.0736L180.771 87.8356C186.249 89.0368 191.949 87.1848 195.675 82.9929L232.163 41.9447Z" stroke="black" style="stroke:black;stroke-opacity:1;"/>
<path d="M257.163 12.9447C262.931 6.45577 273.069 6.45577 278.837 12.9447L315.325 53.9929C319.051 58.1848 324.751 60.0368 330.229 58.8356L383.875 47.0736C392.356 45.2142 400.558 51.1738 401.411 59.8138L406.802 114.469C407.352 120.05 410.875 124.899 416.013 127.148L466.328 149.164C474.281 152.645 477.414 162.287 473.026 169.778L445.262 217.164C442.426 222.003 442.426 227.997 445.262 232.836L473.026 280.222C477.414 287.712 474.281 297.355 466.328 300.836L416.013 322.852C410.875 325.101 407.352 329.949 406.802 335.531L401.411 390.186C400.558 398.826 392.356 404.786 383.875 402.926L330.229 391.164C324.751 389.963 319.051 391.815 315.325 396.007L278.837 437.055C273.069 443.544 262.931 443.544 257.163 437.055L220.675 396.007C216.949 391.815 211.249 389.963 205.771 391.164L152.125 402.926C143.644 404.786 135.442 398.826 134.589 390.186L129.198 335.531C128.648 329.949 125.125 325.101 119.987 322.852L69.6724 300.836C61.7186 297.355 58.5855 287.712 62.9745 280.222L90.7385 232.836C93.5737 227.997 93.5737 222.003 90.7385 217.164L62.9745 169.778C58.5855 162.287 61.7186 152.645 69.6724 149.164L119.987 127.148C125.125 124.899 128.648 120.05 129.198 114.469L134.589 59.8138C135.442 51.1738 143.644 45.2142 152.125 47.0736L205.771 58.8356C211.249 60.0368 216.949 58.1848 220.675 53.9929L257.163 12.9447Z" stroke="black" style="stroke:black;stroke-opacity:1;"/>
<path d="M214.163 71.9447C219.931 65.4558 230.069 65.4558 235.837 71.9447L272.325 112.993C276.051 117.185 281.751 119.037 287.229 117.836L340.875 106.074C349.356 104.214 357.558 110.174 358.411 118.814L363.802 173.469C364.352 179.05 367.875 183.899 373.013 186.148L423.328 208.164C431.281 211.645 434.414 221.287 430.026 228.778L402.262 276.164C399.426 281.003 399.426 286.997 402.262 291.836L430.026 339.222C434.414 346.712 431.281 356.355 423.328 359.836L373.013 381.852C367.875 384.101 364.352 388.949 363.802 394.531L358.411 449.186C357.558 457.826 349.356 463.786 340.875 461.926L287.229 450.164C281.751 448.963 276.051 450.815 272.325 455.007L235.837 496.055C230.069 502.544 219.931 502.544 214.163 496.055L177.675 455.007C173.949 450.815 168.249 448.963 162.771 450.164L109.125 461.926C100.644 463.786 92.4416 457.826 91.5894 449.186L86.1981 394.531C85.6476 388.949 82.1248 384.101 76.9867 381.852L26.6724 359.836C18.7186 356.355 15.5855 346.712 19.9745 339.222L47.7385 291.836C50.5737 286.997 50.5737 281.003 47.7385 276.164L19.9745 228.778C15.5855 221.287 18.7186 211.645 26.6724 208.164L76.9867 186.148C82.1248 183.899 85.6476 179.05 86.1981 173.469L91.5894 118.814C92.4416 110.174 100.644 104.214 109.125 106.074L162.771 117.836C168.249 119.037 173.949 117.185 177.675 112.993L214.163 71.9447Z" stroke="black" style="stroke:black;stroke-opacity:1;"/>
</svg>
